<mxfile host="app.diagrams.net" modified="2024-02-20T10:34:12.848Z" agent="Mozilla/5.0 (Windows NT 10.0; Win64; x64) AppleWebKit/537.36 (KHTML, like Gecko) Chrome/121.0.0.0 Safari/537.36" etag="uYBJsVTFGiHXm82jy5s2" version="23.1.5" type="device">
  <diagram name="Page-1" id="wGSEQD3Y984f35dVQMhO">
    <mxGraphModel dx="1434" dy="780" grid="1" gridSize="10" guides="1" tooltips="1" connect="1" arrows="1" fold="1" page="1" pageScale="1" pageWidth="850" pageHeight="1100" math="0" shadow="0">
      <root>
        <mxCell id="0" />
        <mxCell id="1" parent="0" />
        <mxCell id="j73sJbp-NiUNHyKADYKd-1" value="&lt;b&gt;&lt;font style=&quot;font-size: 19px;&quot;&gt;Admin Dashboard&lt;/font&gt;&lt;/b&gt;" style="text;html=1;align=center;verticalAlign=middle;whiteSpace=wrap;rounded=0;" parent="1" vertex="1">
          <mxGeometry x="440" y="40" width="420" height="30" as="geometry" />
        </mxCell>
        <mxCell id="j73sJbp-NiUNHyKADYKd-4" value="" style="sketch=0;outlineConnect=0;fontColor=#232F3E;gradientColor=none;fillColor=#232F3D;strokeColor=none;dashed=0;verticalLabelPosition=bottom;verticalAlign=top;align=center;html=1;fontSize=12;fontStyle=0;aspect=fixed;pointerEvents=1;shape=mxgraph.aws4.client;" parent="1" vertex="1">
          <mxGeometry x="70" y="280" width="78" height="76" as="geometry" />
        </mxCell>
        <mxCell id="j73sJbp-NiUNHyKADYKd-7" value="" style="sketch=0;points=[[0,0,0],[0.25,0,0],[0.5,0,0],[0.75,0,0],[1,0,0],[0,1,0],[0.25,1,0],[0.5,1,0],[0.75,1,0],[1,1,0],[0,0.25,0],[0,0.5,0],[0,0.75,0],[1,0.25,0],[1,0.5,0],[1,0.75,0]];outlineConnect=0;fontColor=#232F3E;fillColor=#8C4FFF;strokeColor=#ffffff;dashed=0;verticalLabelPosition=bottom;verticalAlign=top;align=center;html=1;fontSize=12;fontStyle=0;aspect=fixed;shape=mxgraph.aws4.resourceIcon;resIcon=mxgraph.aws4.api_gateway;" parent="1" vertex="1">
          <mxGeometry x="390" y="282" width="78" height="78" as="geometry" />
        </mxCell>
        <mxCell id="j73sJbp-NiUNHyKADYKd-8" value="" style="sketch=0;outlineConnect=0;fontColor=#232F3E;gradientColor=none;fillColor=#ED7100;strokeColor=none;dashed=0;verticalLabelPosition=bottom;verticalAlign=top;align=center;html=1;fontSize=12;fontStyle=0;aspect=fixed;pointerEvents=1;shape=mxgraph.aws4.lambda_function;" parent="1" vertex="1">
          <mxGeometry x="401" y="130" width="48" height="48" as="geometry" />
        </mxCell>
        <mxCell id="j73sJbp-NiUNHyKADYKd-9" value="" style="endArrow=classic;html=1;rounded=0;" parent="1" edge="1">
          <mxGeometry width="50" height="50" relative="1" as="geometry">
            <mxPoint x="150" y="320" as="sourcePoint" />
            <mxPoint x="390" y="320" as="targetPoint" />
          </mxGeometry>
        </mxCell>
        <mxCell id="j73sJbp-NiUNHyKADYKd-11" value="Client" style="text;html=1;align=center;verticalAlign=middle;whiteSpace=wrap;rounded=0;" parent="1" vertex="1">
          <mxGeometry x="79" y="250" width="60" height="30" as="geometry" />
        </mxCell>
        <mxCell id="j73sJbp-NiUNHyKADYKd-14" value="" style="sketch=0;outlineConnect=0;fontColor=#232F3E;gradientColor=none;fillColor=#ED7100;strokeColor=none;dashed=0;verticalLabelPosition=bottom;verticalAlign=top;align=center;html=1;fontSize=12;fontStyle=0;aspect=fixed;pointerEvents=1;shape=mxgraph.aws4.lambda_function;" parent="1" vertex="1">
          <mxGeometry x="660" y="150" width="48" height="48" as="geometry" />
        </mxCell>
        <mxCell id="j73sJbp-NiUNHyKADYKd-19" value="&lt;font style=&quot;font-size: 13px;&quot;&gt;User request API gateway resource with include token&lt;/font&gt;" style="text;html=1;align=center;verticalAlign=middle;whiteSpace=wrap;rounded=0;" parent="1" vertex="1">
          <mxGeometry x="180" y="290" width="180" height="30" as="geometry" />
        </mxCell>
        <mxCell id="j73sJbp-NiUNHyKADYKd-21" value="" style="endArrow=classic;html=1;rounded=0;entryX=0.625;entryY=1;entryDx=0;entryDy=0;entryPerimeter=0;" parent="1" target="j73sJbp-NiUNHyKADYKd-8" edge="1">
          <mxGeometry width="50" height="50" relative="1" as="geometry">
            <mxPoint x="430" y="280" as="sourcePoint" />
            <mxPoint x="480" y="230" as="targetPoint" />
          </mxGeometry>
        </mxCell>
        <mxCell id="j73sJbp-NiUNHyKADYKd-22" value="" style="endArrow=classic;html=1;rounded=0;entryX=0.385;entryY=0.026;entryDx=0;entryDy=0;entryPerimeter=0;" parent="1" target="j73sJbp-NiUNHyKADYKd-7" edge="1">
          <mxGeometry width="50" height="50" relative="1" as="geometry">
            <mxPoint x="420" y="180" as="sourcePoint" />
            <mxPoint x="470" y="130" as="targetPoint" />
          </mxGeometry>
        </mxCell>
        <mxCell id="j73sJbp-NiUNHyKADYKd-23" value="Send token" style="text;html=1;align=center;verticalAlign=middle;whiteSpace=wrap;rounded=0;" parent="1" vertex="1">
          <mxGeometry x="425" y="211" width="60" height="30" as="geometry" />
        </mxCell>
        <mxCell id="j73sJbp-NiUNHyKADYKd-37" value="Generate policies" style="text;html=1;align=center;verticalAlign=middle;whiteSpace=wrap;rounded=0;" parent="1" vertex="1">
          <mxGeometry x="360" y="211" width="60" height="30" as="geometry" />
        </mxCell>
        <mxCell id="j73sJbp-NiUNHyKADYKd-48" value="" style="endArrow=classic;html=1;rounded=0;" parent="1" target="j73sJbp-NiUNHyKADYKd-14" edge="1">
          <mxGeometry width="50" height="50" relative="1" as="geometry">
            <mxPoint x="470" y="290" as="sourcePoint" />
            <mxPoint x="520" y="240" as="targetPoint" />
          </mxGeometry>
        </mxCell>
        <mxCell id="j73sJbp-NiUNHyKADYKd-59" value="Authorizer token with role (Admin)" style="text;html=1;align=center;verticalAlign=middle;whiteSpace=wrap;rounded=0;" parent="1" vertex="1">
          <mxGeometry x="449" y="138" width="75" height="40" as="geometry" />
        </mxCell>
        <mxCell id="j73sJbp-NiUNHyKADYKd-60" value="API Gateway" style="text;html=1;align=center;verticalAlign=middle;whiteSpace=wrap;rounded=0;" parent="1" vertex="1">
          <mxGeometry x="401" y="370" width="60" height="30" as="geometry" />
        </mxCell>
        <mxCell id="j73sJbp-NiUNHyKADYKd-61" value="" style="endArrow=none;html=1;rounded=0;" parent="1" edge="1">
          <mxGeometry width="50" height="50" relative="1" as="geometry">
            <mxPoint x="1160" y="520" as="sourcePoint" />
            <mxPoint x="1160" y="200" as="targetPoint" />
          </mxGeometry>
        </mxCell>
        <mxCell id="j73sJbp-NiUNHyKADYKd-66" value="DB" style="sketch=0;points=[[0,0,0],[0.25,0,0],[0.5,0,0],[0.75,0,0],[1,0,0],[0,1,0],[0.25,1,0],[0.5,1,0],[0.75,1,0],[1,1,0],[0,0.25,0],[0,0.5,0],[0,0.75,0],[1,0.25,0],[1,0.5,0],[1,0.75,0]];outlineConnect=0;fontColor=#232F3E;fillColor=#C925D1;strokeColor=#ffffff;dashed=0;verticalLabelPosition=bottom;verticalAlign=top;align=center;html=1;fontSize=12;fontStyle=0;aspect=fixed;shape=mxgraph.aws4.resourceIcon;resIcon=mxgraph.aws4.dynamodb;noLabel=0;" parent="1" vertex="1">
          <mxGeometry x="1300" y="241" width="80" height="80" as="geometry" />
        </mxCell>
        <mxCell id="j73sJbp-NiUNHyKADYKd-67" value="Secrets Manager" style="sketch=0;points=[[0,0,0],[0.25,0,0],[0.5,0,0],[0.75,0,0],[1,0,0],[0,1,0],[0.25,1,0],[0.5,1,0],[0.75,1,0],[1,1,0],[0,0.25,0],[0,0.5,0],[0,0.75,0],[1,0.25,0],[1,0.5,0],[1,0.75,0]];outlineConnect=0;fontColor=#232F3E;fillColor=#DD344C;strokeColor=#ffffff;dashed=0;verticalLabelPosition=bottom;verticalAlign=top;align=center;html=1;fontSize=12;fontStyle=0;aspect=fixed;shape=mxgraph.aws4.resourceIcon;resIcon=mxgraph.aws4.secrets_manager;" parent="1" vertex="1">
          <mxGeometry x="1302" y="375" width="78" height="78" as="geometry" />
        </mxCell>
        <mxCell id="j73sJbp-NiUNHyKADYKd-68" value="" style="endArrow=classic;html=1;rounded=0;" parent="1" edge="1">
          <mxGeometry width="50" height="50" relative="1" as="geometry">
            <mxPoint x="1160" y="419.5" as="sourcePoint" />
            <mxPoint x="1300" y="419.5" as="targetPoint" />
          </mxGeometry>
        </mxCell>
        <mxCell id="j73sJbp-NiUNHyKADYKd-70" value="Secrets" style="edgeLabel;html=1;align=center;verticalAlign=middle;resizable=0;points=[];" parent="j73sJbp-NiUNHyKADYKd-68" vertex="1" connectable="0">
          <mxGeometry x="-0.1714" relative="1" as="geometry">
            <mxPoint as="offset" />
          </mxGeometry>
        </mxCell>
        <mxCell id="j73sJbp-NiUNHyKADYKd-69" value="" style="endArrow=classic;html=1;rounded=0;entryX=0;entryY=0.25;entryDx=0;entryDy=0;entryPerimeter=0;" parent="1" target="j73sJbp-NiUNHyKADYKd-66" edge="1">
          <mxGeometry width="50" height="50" relative="1" as="geometry">
            <mxPoint x="1160" y="260" as="sourcePoint" />
            <mxPoint x="1210" y="220" as="targetPoint" />
          </mxGeometry>
        </mxCell>
        <mxCell id="j73sJbp-NiUNHyKADYKd-71" value="&lt;b&gt;Lambda Authorizer&lt;/b&gt;" style="text;html=1;align=center;verticalAlign=middle;whiteSpace=wrap;rounded=0;" parent="1" vertex="1">
          <mxGeometry x="405" y="90" width="48" height="31" as="geometry" />
        </mxCell>
        <mxCell id="KoGHYjcyNZ8tDWma8IO1-4" value="" style="sketch=0;outlineConnect=0;fontColor=#232F3E;gradientColor=none;fillColor=#ED7100;strokeColor=none;dashed=0;verticalLabelPosition=bottom;verticalAlign=top;align=center;html=1;fontSize=12;fontStyle=0;aspect=fixed;pointerEvents=1;shape=mxgraph.aws4.lambda_function;" vertex="1" parent="1">
          <mxGeometry x="660" y="242" width="48" height="48" as="geometry" />
        </mxCell>
        <mxCell id="KoGHYjcyNZ8tDWma8IO1-5" value="" style="sketch=0;outlineConnect=0;fontColor=#232F3E;gradientColor=none;fillColor=#ED7100;strokeColor=none;dashed=0;verticalLabelPosition=bottom;verticalAlign=top;align=center;html=1;fontSize=12;fontStyle=0;aspect=fixed;pointerEvents=1;shape=mxgraph.aws4.lambda_function;" vertex="1" parent="1">
          <mxGeometry x="660" y="320" width="48" height="48" as="geometry" />
        </mxCell>
        <mxCell id="KoGHYjcyNZ8tDWma8IO1-6" value="" style="sketch=0;outlineConnect=0;fontColor=#232F3E;gradientColor=none;fillColor=#ED7100;strokeColor=none;dashed=0;verticalLabelPosition=bottom;verticalAlign=top;align=center;html=1;fontSize=12;fontStyle=0;aspect=fixed;pointerEvents=1;shape=mxgraph.aws4.lambda_function;" vertex="1" parent="1">
          <mxGeometry x="660" y="480" width="48" height="48" as="geometry" />
        </mxCell>
        <mxCell id="KoGHYjcyNZ8tDWma8IO1-7" value="" style="sketch=0;outlineConnect=0;fontColor=#232F3E;gradientColor=none;fillColor=#ED7100;strokeColor=none;dashed=0;verticalLabelPosition=bottom;verticalAlign=top;align=center;html=1;fontSize=12;fontStyle=0;aspect=fixed;pointerEvents=1;shape=mxgraph.aws4.lambda_function;" vertex="1" parent="1">
          <mxGeometry x="660" y="390" width="48" height="48" as="geometry" />
        </mxCell>
        <mxCell id="KoGHYjcyNZ8tDWma8IO1-8" value="Analytics Data" style="text;html=1;align=center;verticalAlign=middle;whiteSpace=wrap;rounded=0;" vertex="1" parent="1">
          <mxGeometry x="708" y="159" width="60" height="30" as="geometry" />
        </mxCell>
        <mxCell id="KoGHYjcyNZ8tDWma8IO1-9" value="Top Chains in APP" style="text;html=1;align=center;verticalAlign=middle;whiteSpace=wrap;rounded=0;" vertex="1" parent="1">
          <mxGeometry x="720" y="251" width="60" height="30" as="geometry" />
        </mxCell>
        <mxCell id="KoGHYjcyNZ8tDWma8IO1-10" value="Mutation on Chains" style="text;html=1;align=center;verticalAlign=middle;whiteSpace=wrap;rounded=0;" vertex="1" parent="1">
          <mxGeometry x="720" y="330" width="60" height="30" as="geometry" />
        </mxCell>
        <mxCell id="KoGHYjcyNZ8tDWma8IO1-11" value="Node Listing" style="text;html=1;align=center;verticalAlign=middle;whiteSpace=wrap;rounded=0;" vertex="1" parent="1">
          <mxGeometry x="720" y="405" width="60" height="30" as="geometry" />
        </mxCell>
        <mxCell id="KoGHYjcyNZ8tDWma8IO1-12" value="Mutation on Node" style="text;html=1;align=center;verticalAlign=middle;whiteSpace=wrap;rounded=0;" vertex="1" parent="1">
          <mxGeometry x="720" y="489" width="60" height="30" as="geometry" />
        </mxCell>
        <mxCell id="KoGHYjcyNZ8tDWma8IO1-13" value="" style="endArrow=classic;html=1;rounded=0;" edge="1" parent="1" source="j73sJbp-NiUNHyKADYKd-7" target="KoGHYjcyNZ8tDWma8IO1-4">
          <mxGeometry width="50" height="50" relative="1" as="geometry">
            <mxPoint x="470" y="320" as="sourcePoint" />
            <mxPoint x="520" y="270" as="targetPoint" />
          </mxGeometry>
        </mxCell>
        <mxCell id="KoGHYjcyNZ8tDWma8IO1-14" value="" style="endArrow=classic;html=1;rounded=0;" edge="1" parent="1" source="j73sJbp-NiUNHyKADYKd-7" target="KoGHYjcyNZ8tDWma8IO1-5">
          <mxGeometry width="50" height="50" relative="1" as="geometry">
            <mxPoint x="470" y="340" as="sourcePoint" />
            <mxPoint x="520" y="290" as="targetPoint" />
          </mxGeometry>
        </mxCell>
        <mxCell id="KoGHYjcyNZ8tDWma8IO1-15" value="" style="endArrow=classic;html=1;rounded=0;" edge="1" parent="1" target="KoGHYjcyNZ8tDWma8IO1-7">
          <mxGeometry width="50" height="50" relative="1" as="geometry">
            <mxPoint x="470" y="340" as="sourcePoint" />
            <mxPoint x="520" y="300" as="targetPoint" />
          </mxGeometry>
        </mxCell>
        <mxCell id="KoGHYjcyNZ8tDWma8IO1-18" value="" style="endArrow=classic;html=1;rounded=0;" edge="1" parent="1" source="j73sJbp-NiUNHyKADYKd-7" target="KoGHYjcyNZ8tDWma8IO1-6">
          <mxGeometry width="50" height="50" relative="1" as="geometry">
            <mxPoint x="480" y="360" as="sourcePoint" />
            <mxPoint x="530" y="310" as="targetPoint" />
          </mxGeometry>
        </mxCell>
        <mxCell id="KoGHYjcyNZ8tDWma8IO1-19" value="" style="endArrow=classic;html=1;rounded=0;" edge="1" parent="1">
          <mxGeometry width="50" height="50" relative="1" as="geometry">
            <mxPoint x="690" y="189" as="sourcePoint" />
            <mxPoint x="1160" y="199" as="targetPoint" />
          </mxGeometry>
        </mxCell>
        <mxCell id="KoGHYjcyNZ8tDWma8IO1-20" value="" style="endArrow=classic;html=1;rounded=0;" edge="1" parent="1">
          <mxGeometry width="50" height="50" relative="1" as="geometry">
            <mxPoint x="690" y="290" as="sourcePoint" />
            <mxPoint x="1160" y="290" as="targetPoint" />
          </mxGeometry>
        </mxCell>
        <mxCell id="KoGHYjcyNZ8tDWma8IO1-21" value="" style="endArrow=classic;html=1;rounded=0;" edge="1" parent="1">
          <mxGeometry width="50" height="50" relative="1" as="geometry">
            <mxPoint x="680" y="370" as="sourcePoint" />
            <mxPoint x="1160" y="380" as="targetPoint" />
          </mxGeometry>
        </mxCell>
        <mxCell id="KoGHYjcyNZ8tDWma8IO1-22" value="" style="endArrow=classic;html=1;rounded=0;" edge="1" parent="1">
          <mxGeometry width="50" height="50" relative="1" as="geometry">
            <mxPoint x="690" y="440" as="sourcePoint" />
            <mxPoint x="1160" y="440" as="targetPoint" />
          </mxGeometry>
        </mxCell>
        <mxCell id="KoGHYjcyNZ8tDWma8IO1-23" value="" style="endArrow=classic;html=1;rounded=0;" edge="1" parent="1">
          <mxGeometry width="50" height="50" relative="1" as="geometry">
            <mxPoint x="680" y="530" as="sourcePoint" />
            <mxPoint x="1160" y="520" as="targetPoint" />
          </mxGeometry>
        </mxCell>
      </root>
    </mxGraphModel>
  </diagram>
</mxfile>
